<?xml version="1.0" encoding="UTF-8"?><svg xmlns="http://www.w3.org/2000/svg" xmlns:xlink="http://www.w3.org/1999/xlink" contentScriptType="text/ecmascript" width="112.5pt" zoomAndPan="magnify" contentStyleType="text/css" viewBox="0 0 112.5 121.499994" height="121.499994pt" preserveAspectRatio="xMidYMid meet" version="1.2"><defs><clipPath xml:id="clip1" id="clip1"><path d="M 5.6875 67 L 49 67 L 49 93 L 5.6875 93 Z M 5.6875 67 "/></clipPath><clipPath xml:id="clip2" id="clip2"><path d="M 63 2.839844 L 106.9375 2.839844 L 106.9375 28 L 63 28 Z M 63 2.839844 "/></clipPath><clipPath xml:id="clip3" id="clip3"><path d="M 27 15 L 106.9375 15 L 106.9375 118.339844 L 27 118.339844 Z M 27 15 "/></clipPath></defs><g xml:id="surface1" id="surface1"><g clip-rule="nonzero" clip-path="url(#clip1)"><path style=" stroke:none;fill-rule:nonzero;fill:rgb(0%,78.819275%,100%);fill-opacity:1;" d="M 48.707031 80.296875 L 27.253906 92.632812 L 5.796875 80.289062 L 27.253906 67.953125 Z M 48.707031 80.296875 "/></g><path style=" stroke:none;fill-rule:nonzero;fill:rgb(0%,78.819275%,100%);fill-opacity:1;" d="M 77.9375 47.761719 L 56.476562 60.101562 L 35.023438 47.753906 L 56.476562 35.414062 Z M 77.9375 47.761719 "/><g clip-rule="nonzero" clip-path="url(#clip2)"><path style=" stroke:none;fill-rule:nonzero;fill:rgb(0%,78.819275%,100%);fill-opacity:1;" d="M 106.828125 15.183594 L 85.371094 27.523438 L 63.914062 15.179688 L 85.371094 2.839844 Z M 106.828125 15.183594 "/></g><g clip-rule="nonzero" clip-path="url(#clip3)"><path style=" stroke:none;fill-rule:nonzero;fill:rgb(16.859436%,34.899902%,100%);fill-opacity:1;" d="M 85.371094 27.523438 L 85.371094 85.929688 L 106.820312 73.960938 L 106.820312 15.179688 Z M 56.476562 102.039062 L 77.9375 90.078125 L 77.9375 47.757812 L 56.476562 60.097656 Z M 27.253906 118.339844 L 48.710938 106.375 L 48.710938 80.289062 L 27.253906 92.613281 Z M 27.253906 118.339844 "/></g></g></svg>