<?xml version="1.0" encoding="UTF-8"?><svg xmlns="http://www.w3.org/2000/svg" xmlns:xlink="http://www.w3.org/1999/xlink" contentScriptType="text/ecmascript" width="172.5pt" zoomAndPan="magnify" contentStyleType="text/css" viewBox="0 0 172.5 37.5" height="37.5pt" preserveAspectRatio="xMidYMid meet" version="1.2"><defs><g/><clipPath xml:id="clip1" id="clip1"><path d="M 2.148438 21 L 16 21 L 16 29 L 2.148438 29 Z M 2.148438 21 "/></clipPath><clipPath xml:id="clip2" id="clip2"><path d="M 20 0.527344 L 33.324219 0.527344 L 33.324219 9 L 20 9 Z M 20 0.527344 "/></clipPath><clipPath xml:id="clip3" id="clip3"><path d="M 8 4 L 33.324219 4 L 33.324219 36.898438 L 8 36.898438 Z M 8 4 "/></clipPath></defs><g xml:id="surface1" id="surface1"><g clip-rule="nonzero" clip-path="url(#clip1)"><path style=" stroke:none;fill-rule:nonzero;fill:rgb(0%,78.819275%,100%);fill-opacity:1;" d="M 15.394531 24.917969 L 8.789062 28.804688 L 2.179688 24.917969 L 8.789062 21.03125 Z M 15.394531 24.917969 "/></g><path style=" stroke:none;fill-rule:nonzero;fill:rgb(0%,78.819275%,100%);fill-opacity:1;" d="M 24.398438 14.671875 L 17.789062 18.558594 L 11.179688 14.667969 L 17.789062 10.785156 Z M 24.398438 14.671875 "/><g clip-rule="nonzero" clip-path="url(#clip2)"><path style=" stroke:none;fill-rule:nonzero;fill:rgb(0%,78.819275%,100%);fill-opacity:1;" d="M 33.296875 4.414062 L 26.6875 8.300781 L 20.078125 4.410156 L 26.6875 0.527344 Z M 33.296875 4.414062 "/></g><g clip-rule="nonzero" clip-path="url(#clip3)"><path style=" stroke:none;fill-rule:nonzero;fill:rgb(16.859436%,34.899902%,100%);fill-opacity:1;" d="M 26.6875 8.300781 L 26.6875 26.691406 L 33.292969 22.921875 L 33.292969 4.414062 Z M 17.789062 31.765625 L 24.398438 27.996094 L 24.398438 14.671875 L 17.789062 18.558594 Z M 8.789062 36.898438 L 15.398438 33.128906 L 15.398438 24.917969 L 8.789062 28.796875 Z M 8.789062 36.898438 "/></g><g style="fill:rgb(100%,100%,100%);fill-opacity:1;"><g transform="translate(36.71038, 22.488349)"><path style="stroke:none;" d="M 5.851562 -3.546875 L 5.851562 -17.734375 L 2.027344 -17.734375 L 2.027344 0 L 12.667969 0 L 12.667969 -3.546875 Z M 5.851562 -3.546875 "/></g></g><g style="fill:rgb(100%,100%,100%);fill-opacity:1;"><g transform="translate(49.932775, 22.488349)"><path style="stroke:none;" d="M 10.742188 -13.679688 L 7.449219 -4.507812 L 4.105469 -13.679688 L 0.152344 -13.679688 L 5.726562 0 L 9.144531 0 L 14.566406 -13.679688 Z M 10.742188 -13.679688 "/></g></g><g style="fill:rgb(100%,100%,100%);fill-opacity:1;"><g transform="translate(64.725644, 22.488349)"><path style="stroke:none;" d="M 5.851562 -3.546875 L 5.851562 -17.734375 L 2.027344 -17.734375 L 2.027344 0 L 12.667969 0 L 12.667969 -3.546875 Z M 5.851562 -3.546875 "/></g></g><g style="fill:rgb(100%,100%,100%);fill-opacity:1;"><g transform="translate(77.948039, 22.488349)"><path style="stroke:none;" d="M 23.738281 0 L 21 -17.734375 L 17.152344 -17.734375 L 12.335938 -6.839844 L 7.523438 -17.734375 L 3.699219 -17.734375 L 0.910156 0 L 4.8125 0 L 6.5625 -11.550781 L 11.855469 -0.0234375 L 12.792969 -0.0234375 L 18.089844 -11.550781 L 19.835938 0 Z M 23.738281 0 "/></g></g><g style="fill:rgb(100%,100%,100%);fill-opacity:1;"><g transform="translate(102.645041, 22.488349)"><path style="stroke:none;" d="M 8.257812 0.40625 C 12.488281 0.40625 15.65625 -2.710938 15.65625 -6.839844 C 15.65625 -10.96875 12.488281 -14.058594 8.257812 -14.058594 C 4.027344 -14.058594 0.863281 -10.96875 0.863281 -6.839844 C 0.863281 -2.710938 4.027344 0.40625 8.257812 0.40625 Z M 8.257812 -3.089844 C 6.128906 -3.089844 4.609375 -4.609375 4.609375 -6.839844 C 4.609375 -9.042969 6.128906 -10.589844 8.257812 -10.589844 C 10.386719 -10.589844 11.90625 -9.042969 11.90625 -6.839844 C 11.90625 -4.609375 10.386719 -3.089844 8.257812 -3.089844 Z M 8.257812 -3.089844 "/></g></g><g style="fill:rgb(100%,100%,100%);fill-opacity:1;"><g transform="translate(119.185697, 22.488349)"><path style="stroke:none;" d="M 9.550781 -13.984375 C 7.703125 -13.984375 6.054688 -13.199219 5.015625 -11.984375 L 4.308594 -13.679688 L 1.773438 -13.679688 L 1.773438 0 L 5.472656 0 L 5.472656 -7.167969 C 5.472656 -9.375 6.636719 -10.742188 8.539062 -10.742188 C 10.132812 -10.742188 10.917969 -9.753906 10.917969 -7.675781 L 10.917969 0 L 14.617188 0 L 14.617188 -8.285156 C 14.617188 -11.753906 12.667969 -13.984375 9.550781 -13.984375 Z M 9.550781 -13.984375 "/></g></g><g style="fill:rgb(100%,100%,100%);fill-opacity:1;"><g transform="translate(135.422391, 22.488349)"><path style="stroke:none;" d="M 15.046875 -6.867188 C 15.046875 -10.816406 12.160156 -14.058594 7.953125 -14.058594 C 3.902344 -14.058594 0.863281 -10.945312 0.863281 -6.839844 C 0.863281 -2.734375 3.925781 0.40625 7.953125 0.40625 C 11.148438 0.40625 13.757812 -1.496094 14.746094 -4.484375 L 10.867188 -4.484375 C 10.3125 -3.496094 9.246094 -2.886719 7.953125 -2.886719 C 6.15625 -2.886719 4.941406 -3.925781 4.609375 -5.800781 L 14.972656 -5.800781 C 15.023438 -6.15625 15.046875 -6.511719 15.046875 -6.867188 Z M 7.953125 -10.894531 C 9.625 -10.894531 10.816406 -9.980469 11.347656 -8.308594 L 4.710938 -8.308594 C 5.144531 -9.929688 6.308594 -10.894531 7.953125 -10.894531 Z M 7.953125 -10.894531 "/></g></g><g style="fill:rgb(100%,100%,100%);fill-opacity:1;"><g transform="translate(151.329796, 22.488349)"><path style="stroke:none;" d="M 11.222656 -13.679688 L 7.804688 -5.242188 L 4.15625 -13.679688 L 0.125 -13.679688 L 5.929688 -1.039062 L 5.878906 -0.9375 C 5.042969 1.140625 4.585938 1.621094 2.785156 1.621094 L 1.519531 1.621094 L 1.519531 4.941406 L 3.039062 4.941406 C 6.105469 4.941406 7.550781 3.546875 9.195312 -0.175781 L 15.148438 -13.679688 Z M 11.222656 -13.679688 "/></g></g><g style="fill:rgb(100%,100%,100%);fill-opacity:1;"><g transform="translate(38.34339, 33.164391)"><path style="stroke:none;" d="M 4.441406 -4.984375 L 4.441406 -6.242188 L 0.714844 -6.242188 L 0.714844 0 L 2.058594 0 L 2.058594 -2.390625 L 4.207031 -2.390625 L 4.207031 -3.609375 L 2.058594 -3.609375 L 2.058594 -4.984375 Z M 4.441406 -4.984375 "/></g></g><g style="fill:rgb(100%,100%,100%);fill-opacity:1;"><g transform="translate(43.670725, 33.164391)"><path style="stroke:none;" d="M 0.714844 0 L 2.058594 0 L 2.058594 -6.242188 L 0.714844 -6.242188 Z M 0.714844 0 "/></g></g><g style="fill:rgb(100%,100%,100%);fill-opacity:1;"><g transform="translate(47.011721, 33.164391)"><path style="stroke:none;" d="M 4.664062 -6.242188 L 4.664062 -2.433594 L 1.925781 -6.242188 L 0.714844 -6.242188 L 0.714844 0 L 2.03125 0 L 2.03125 -3.894531 L 4.859375 0 L 5.992188 0 L 5.992188 -6.242188 Z M 4.664062 -6.242188 "/></g></g><g style="fill:rgb(100%,100%,100%);fill-opacity:1;"><g transform="translate(54.27196, 33.164391)"><path style="stroke:none;" d="M 4.851562 0 L 6.320312 0 L 3.796875 -6.242188 L 2.523438 -6.242188 L 0.0703125 0 L 1.507812 0 L 1.933594 -1.175781 L 4.414062 -1.175781 Z M 3.171875 -4.589844 L 3.992188 -2.351562 L 2.351562 -2.351562 Z M 3.171875 -4.589844 "/></g></g><g style="fill:rgb(100%,100%,100%);fill-opacity:1;"><g transform="translate(61.229345, 33.164391)"><path style="stroke:none;" d="M 4.664062 -6.242188 L 4.664062 -2.433594 L 1.925781 -6.242188 L 0.714844 -6.242188 L 0.714844 0 L 2.03125 0 L 2.03125 -3.894531 L 4.859375 0 L 5.992188 0 L 5.992188 -6.242188 Z M 4.664062 -6.242188 "/></g></g><g style="fill:rgb(100%,100%,100%);fill-opacity:1;"><g transform="translate(68.489585, 33.164391)"><path style="stroke:none;" d="M 3.574219 0.144531 C 5.117188 0.144531 6.328125 -0.890625 6.613281 -2.433594 L 5.25 -2.433594 C 5.027344 -1.648438 4.394531 -1.148438 3.574219 -1.148438 C 2.515625 -1.148438 1.71875 -1.988281 1.71875 -3.109375 C 1.71875 -4.234375 2.515625 -5.082031 3.574219 -5.082031 C 4.359375 -5.082031 4.984375 -4.617188 5.242188 -3.886719 L 6.589844 -3.886719 C 6.300781 -5.367188 5.089844 -6.375 3.574219 -6.375 C 1.738281 -6.375 0.347656 -4.964844 0.347656 -3.109375 C 0.347656 -1.265625 1.738281 0.144531 3.574219 0.144531 Z M 3.574219 0.144531 "/></g></g><g style="fill:rgb(100%,100%,100%);fill-opacity:1;"><g transform="translate(75.919061, 33.164391)"><path style="stroke:none;" d="M 2.058594 -1.25 L 2.058594 -2.53125 L 4.226562 -2.53125 L 4.226562 -3.753906 L 2.058594 -3.753906 L 2.058594 -4.992188 L 4.457031 -4.992188 L 4.457031 -6.242188 L 0.714844 -6.242188 L 0.714844 0 L 4.554688 0 L 4.554688 -1.25 Z M 2.058594 -1.25 "/></g></g><g style="fill:rgb(100%,100%,100%);fill-opacity:1;"><g transform="translate(81.46018, 33.164391)"><path style="stroke:none;" d=""/></g></g><g style="fill:rgb(100%,100%,100%);fill-opacity:1;"><g transform="translate(84.150936, 33.164391)"><path style="stroke:none;" d="M 7.738281 -6.242188 L 6.535156 -2.09375 L 4.859375 -6.167969 L 4.402344 -6.167969 L 2.761719 -2.085938 L 1.535156 -6.242188 L 0.105469 -6.242188 L 2.066406 0 L 3.273438 0 L 4.625 -3.496094 L 6.015625 0 L 7.222656 0 L 9.148438 -6.242188 Z M 7.738281 -6.242188 "/></g></g><g style="fill:rgb(100%,100%,100%);fill-opacity:1;"><g transform="translate(93.985405, 33.164391)"><path style="stroke:none;" d="M 0.714844 0 L 2.058594 0 L 2.058594 -6.242188 L 0.714844 -6.242188 Z M 0.714844 0 "/></g></g><g style="fill:rgb(100%,100%,100%);fill-opacity:1;"><g transform="translate(97.326398, 33.164391)"><path style="stroke:none;" d="M 5.011719 -6.242188 L 0.1875 -6.242188 L 0.1875 -4.984375 L 1.925781 -4.984375 L 1.925781 0 L 3.273438 0 L 3.273438 -4.984375 L 5.011719 -4.984375 Z M 5.011719 -6.242188 "/></g></g><g style="fill:rgb(100%,100%,100%);fill-opacity:1;"><g transform="translate(103.0902, 33.164391)"><path style="stroke:none;" d="M 4.414062 -6.242188 L 4.414062 -3.832031 L 2.058594 -3.832031 L 2.058594 -6.242188 L 0.714844 -6.242188 L 0.714844 0 L 2.058594 0 L 2.058594 -2.578125 L 4.414062 -2.578125 L 4.414062 0 L 5.757812 0 L 5.757812 -6.242188 Z M 4.414062 -6.242188 "/></g></g><g style="fill:rgb(100%,100%,100%);fill-opacity:1;"><g transform="translate(110.127751, 33.164391)"><path style="stroke:none;" d=""/></g></g><g style="fill:rgb(83.918762%,87.449646%,12.939453%);fill-opacity:1;"><g transform="translate(112.814631, 33.164391)"><path style="stroke:none;" d="M 4.851562 0 L 6.320312 0 L 3.796875 -6.242188 L 2.523438 -6.242188 L 0.0703125 0 L 1.507812 0 L 1.933594 -1.175781 L 4.414062 -1.175781 Z M 3.171875 -4.589844 L 3.992188 -2.351562 L 2.351562 -2.351562 Z M 3.171875 -4.589844 "/></g></g><g style="fill:rgb(83.918762%,87.449646%,12.939453%);fill-opacity:1;"><g transform="translate(119.772017, 33.164391)"><path style="stroke:none;" d="M 0.714844 0 L 2.058594 0 L 2.058594 -6.242188 L 0.714844 -6.242188 Z M 0.714844 0 "/></g></g><path style="fill:none;stroke-width:1;stroke-linecap:round;stroke-linejoin:miter;stroke:rgb(83.918762%,87.449646%,12.939453%);stroke-opacity:1;stroke-miterlimit:4;" d="M 0.500732 0.000119236 L 152.596636 0.000119236 " transform="matrix(0.741822,0,0,0.742277,38.34339,24.785068)"/></g></svg>